<svg xmlns="http://www.w3.org/2000/svg" xmlns:xlink="http://www.w3.org/1999/xlink"
   viewBox="0 0 24 24" fill="none" stroke="currentColor" width="1em" height="1em">
    <g fill="none" stroke="currentColor" stroke-linecap="round" stroke-linejoin="round" stroke-width="1.5">
        <path
        d="M4 6h5.426a1 1 0 0 1 .863.496l1.064 1.823a3 3 0 0 0 1.896 1.407l4.677 1.114A4 4 0 0 1 21 14.73V17a1 1 0 0 1-1 1H4a1 1 0 0 1-1-1V7a1 1 0 0 1 1-1zm10 7l1-2">
        </path>
        <path d="M8 18v-1a4 4 0 0 0-4-4H3m7-1l1.5-3"></path>
    </g>
</svg>